<svg width="120" height="24" viewBox="0 0 120 24" fill="none" xmlns="http://www.w3.org/2000/svg">
<path d="M11.2018 10.2506H16.1678C17.1836 10.2882 17.8044 10.5516 18.0301 11.0407C18.2182 11.3981 18.3123 11.9248 18.3123 12.6208V18.8283C18.3123 19.4302 18.0489 20.004 17.5222 20.5495C15.9421 22.186 13.5719 23.0043 10.4117 23.0043C7.60894 23.0043 5.17295 21.9509 3.10377 19.8441C1.03459 17.7185 0 15.1602 0 12.1693C0 9.17839 1.0534 6.68597 3.1602 4.69203C5.26701 2.67928 7.75002 1.67291 10.6093 1.67291C12.8289 1.67291 14.9263 2.40653 16.9014 3.87376C17.4093 4.24998 17.6633 4.67322 17.6633 5.14349C17.6633 5.59495 17.447 6.12165 17.0143 6.72359C16.2807 7.72056 15.6129 8.21904 15.011 8.21904C14.6536 8.21904 14.0798 7.9651 13.2898 7.45721C12.4997 6.93051 11.5592 6.66716 10.4682 6.66716C9.03856 6.66716 7.76883 7.17505 6.659 8.19083C5.54917 9.1878 4.99425 10.5045 4.99425 12.1411C4.99425 13.7588 5.55857 15.1414 6.68722 16.2888C7.81586 17.4175 9.09499 17.9818 10.5246 17.9818C11.5592 17.9818 12.4903 17.8125 13.318 17.4739V14.3984H11.0889C10.5058 14.3984 10.092 14.3231 9.84742 14.1726C9.60288 14.0222 9.44299 13.8058 9.36775 13.5237C9.2925 13.2227 9.25488 12.8277 9.25488 12.3386C9.25488 11.8307 9.2925 11.4263 9.36775 11.1253C9.4618 10.8243 9.62169 10.6174 9.84742 10.5045C10.186 10.3353 10.6375 10.2506 11.2018 10.2506Z" fill="#446DF6"/>
<path d="M34.8996 13.5237C34.8996 14.6711 34.608 15.527 34.0249 16.0913C33.4605 16.6368 32.8304 16.9096 32.1344 16.9096H25.4472C25.4472 17.4363 25.7576 17.8784 26.3783 18.2358C26.9991 18.5932 27.6198 18.7719 28.2406 18.7719C29.3316 18.7719 30.1875 18.659 30.8082 18.4333L31.1186 18.3204C31.5701 18.1135 31.9463 18.01 32.2473 18.01C32.8492 18.01 33.3665 18.4333 33.7991 19.2798C34.0437 19.7876 34.166 20.2203 34.166 20.5777C34.166 22.2519 32.1626 23.0889 28.1559 23.0889C26.7639 23.0889 25.5224 22.8538 24.4314 22.3835C23.3592 21.8944 22.5221 21.2549 21.9202 20.4648C20.7351 18.9412 20.1425 17.2388 20.1425 15.3577C20.1425 12.9876 20.9044 11.0971 22.4281 9.68628C23.9705 8.25666 25.8892 7.54186 28.1841 7.54186C30.7988 7.54186 32.7175 8.46358 33.9402 10.307C34.5798 11.2852 34.8996 12.3574 34.8996 13.5237ZM28.946 14.3419C29.6608 14.3419 30.0182 14.041 30.0182 13.439C30.0182 13.0064 29.8489 12.6584 29.5103 12.395C29.1905 12.1317 28.7202 12 28.0995 12C27.4975 12 26.8956 12.2539 26.2937 12.7618C25.6917 13.2509 25.3907 13.7776 25.3907 14.3419H28.946Z" fill="#446DF6"/>
<path d="M45.099 12.8465L43.265 12.7336V16.6274C43.265 17.1353 43.3402 17.5021 43.4907 17.7279C43.66 17.9536 43.961 18.0665 44.3936 18.0665C44.8451 18.0665 45.1837 18.0853 45.4094 18.1229C45.6539 18.1417 45.9079 18.2264 46.1712 18.3768C46.6039 18.6214 46.8202 19.2515 46.8202 20.2673C46.8202 21.4524 46.5569 22.1766 46.0302 22.44C45.748 22.5716 45.4941 22.6563 45.2683 22.6939C45.0614 22.7127 44.751 22.7221 44.3372 22.7221C42.3809 22.7221 40.8948 22.2801 39.8791 21.396C38.8633 20.5119 38.3554 19.0164 38.3554 16.9096V12.7336C37.998 12.7901 37.6124 12.8183 37.1985 12.8183C36.7847 12.8183 36.4367 12.6584 36.1545 12.3386C35.8912 12.0188 35.7595 11.4733 35.7595 10.7021C35.7595 9.93082 35.8065 9.3759 35.9006 9.03731C35.9946 8.67991 36.1263 8.42596 36.2956 8.27548C36.5966 8.03094 36.9728 7.90867 37.4243 7.90867L38.3554 8.02153V5.11527C38.3554 4.68263 38.3648 4.36284 38.3836 4.15592C38.4212 3.94901 38.5153 3.72328 38.6658 3.47874C38.9103 3.00847 39.6345 2.77334 40.8384 2.77334C42.1175 2.77334 42.8794 3.12133 43.1239 3.81733C43.218 4.1183 43.265 4.59798 43.265 5.25635V8.02153C44.0927 7.94629 44.7134 7.90867 45.1272 7.90867C45.5599 7.90867 45.8797 7.92748 46.0866 7.9651C46.3123 7.98391 46.5663 8.06856 46.8484 8.21904C47.3375 8.46358 47.582 9.1878 47.582 10.3917C47.582 11.5768 47.3281 12.301 46.8202 12.5643C46.538 12.696 46.2841 12.7806 46.0584 12.8183C45.8515 12.8371 45.5317 12.8465 45.099 12.8465Z" fill="#446DF6"/>
<path d="M73.1141 2.15258C74.3744 2.60404 75.0046 3.20598 75.0046 3.95841C75.0046 4.20295 74.8917 4.66381 74.666 5.341L69.2485 21.0009C69.2109 21.1326 69.145 21.2925 69.051 21.4806C68.9569 21.6687 68.703 21.9227 68.2891 22.2424C67.8941 22.5434 67.4144 22.6939 66.8501 22.6939C66.3046 22.6939 65.8249 22.5434 65.4111 22.2424C65.0161 21.9227 64.7527 21.6123 64.621 21.3113L61.3198 11.5768C59.2318 17.7467 58.169 20.8881 58.1313 21.0009C58.0937 21.1138 58.0091 21.2737 57.8774 21.4806C57.7457 21.6875 57.5952 21.8756 57.4259 22.0449C56.9933 22.4776 56.476 22.6939 55.8741 22.6939C55.2721 22.6939 54.7736 22.5528 54.3786 22.2707C54.0024 21.9885 53.7484 21.7063 53.6168 21.4242L53.4193 21.0009L47.9735 5.341C47.7666 4.72025 47.6632 4.25938 47.6632 3.95841C47.6632 3.20598 48.2933 2.61344 49.5536 2.1808C50.0992 1.99269 50.5882 1.89864 51.0209 1.89864C51.4723 1.89864 51.8109 2.04912 52.0367 2.35009C52.2812 2.65107 52.4975 3.11193 52.6856 3.73268L55.7894 13.1569L58.865 3.87376C59.1283 3.08371 59.608 2.5382 60.304 2.23723C60.605 2.10555 60.9906 2.03972 61.4608 2.03972C61.9499 2.03972 62.4014 2.19961 62.8152 2.51939C63.229 2.82036 63.4924 3.12133 63.6053 3.42231L66.8501 13.2133L69.9539 3.73268C70.1044 3.30004 70.2266 2.98025 70.3207 2.77334C70.4148 2.56642 70.584 2.3689 70.8286 2.1808C71.0919 1.97388 71.4117 1.87042 71.7879 1.87042C72.1641 1.87042 72.6062 1.96447 73.1141 2.15258Z" fill="#446DF6"/>
<path d="M84.2231 9.43234C84.3359 8.37894 85.079 7.85224 86.4521 7.85224C87.1858 7.85224 87.7313 7.90867 88.0887 8.02153C88.4461 8.13439 88.6906 8.33191 88.8223 8.61407C88.9728 8.89623 89.0574 9.15018 89.0762 9.37591C89.1139 9.58282 89.1327 9.90261 89.1327 10.3353V20.2109C89.1327 20.6435 89.1139 20.9727 89.0762 21.1985C89.0574 21.4054 88.9822 21.6499 88.8505 21.9321C88.5872 22.4211 87.9382 22.6657 86.9036 22.6657C85.8878 22.6657 85.2012 22.5434 84.8438 22.2989C84.5052 22.0355 84.3077 21.6593 84.2513 21.1702C83.5553 22.1672 82.389 22.6657 80.7525 22.6657C79.1348 22.6657 77.6299 21.9227 76.2379 20.4366C74.8459 18.9506 74.1499 17.2294 74.1499 15.2731C74.1499 13.2979 74.8459 11.5768 76.2379 10.1095C77.6487 8.62348 79.1912 7.88045 80.8654 7.88045C81.5049 7.88045 82.0881 7.99331 82.6148 8.21904C83.1415 8.44477 83.5083 8.6611 83.7152 8.86801C83.9221 9.05612 84.0914 9.24423 84.2231 9.43234ZM79.0877 15.3013C79.0877 15.922 79.3323 16.4864 79.8214 16.9943C80.3104 17.4833 80.903 17.7279 81.599 17.7279C82.295 17.7279 82.8687 17.4739 83.3202 16.966C83.7904 16.4581 84.0256 15.9032 84.0256 15.3013C84.0256 14.6805 83.7998 14.1068 83.3484 13.5801C82.9157 13.0534 82.3232 12.7901 81.5708 12.7901C80.8371 12.7901 80.2352 13.0534 79.7649 13.5801C79.3135 14.1068 79.0877 14.6805 79.0877 15.3013Z" fill="#446DF6"/>
<path d="M91.4945 21.396C91.1371 21.1702 90.9584 20.8128 90.9584 20.3238C90.9584 19.8347 91.3158 19.0916 92.0306 18.0947C92.2375 17.7749 92.5667 17.615 93.0181 17.615C93.4884 17.615 94.1186 17.8501 94.9086 18.3204C95.6987 18.7719 96.4135 18.9976 97.053 18.9976C98.2005 18.9976 98.7742 18.7719 98.7742 18.3204C98.7742 17.963 98.1441 17.6997 96.8837 17.5304C95.6987 17.3611 94.523 16.919 93.3567 16.2042C92.8112 15.8656 92.3597 15.3389 92.0023 14.6241C91.6449 13.8905 91.4662 13.0252 91.4662 12.0282C91.4662 9.05612 93.5072 7.57007 97.5891 7.57007C98.9247 7.57007 100.298 7.88986 101.709 8.52942C102.367 8.83039 102.696 9.20661 102.696 9.65806C102.696 10.1095 102.489 10.6644 102.076 11.3228C101.662 11.9812 101.238 12.3104 100.806 12.3104C100.58 12.3104 100.157 12.1693 99.536 11.8871C98.9341 11.605 98.2757 11.4639 97.5609 11.4639C96.4511 11.4639 95.8962 11.6708 95.8962 12.0846C95.8962 12.649 96.5357 13.0158 97.8149 13.1851C99.0564 13.3168 100.26 13.6742 101.427 14.2573C101.972 14.5206 102.423 14.9815 102.781 15.6399C103.157 16.2794 103.345 17.0883 103.345 18.0665C103.345 19.0446 103.157 19.8817 102.781 20.5777C102.423 21.2549 101.916 21.7628 101.257 22.1014C100.053 22.6845 98.5391 22.9761 96.7144 22.9761C94.9086 22.9761 93.1686 22.4494 91.4945 21.396Z" fill="#446DF6"/>
<path d="M113.426 7.90867C115.307 7.90867 116.868 8.62348 118.11 10.0531C119.37 11.4827 120 13.2321 120 15.3013V20.2673C120 20.7 119.981 21.0292 119.944 21.2549C119.925 21.4618 119.84 21.7063 119.69 21.9885C119.445 22.4776 118.721 22.7221 117.517 22.7221C116.37 22.7221 115.655 22.4776 115.373 21.9885C115.222 21.7063 115.128 21.4524 115.09 21.2267C115.072 21.0009 115.062 20.6623 115.062 20.2109V15.2731C115.062 14.5018 114.846 13.8999 114.413 13.4672C113.981 13.0346 113.426 12.8183 112.748 12.8183C112.09 12.8183 111.507 13.0252 110.999 13.439C110.491 13.834 110.2 14.2855 110.124 14.7934V20.2673C110.124 20.7 110.106 21.0292 110.068 21.2549C110.049 21.4618 109.964 21.7063 109.814 21.9885C109.569 22.4776 108.845 22.7221 107.641 22.7221C106.456 22.7221 105.732 22.4682 105.469 21.9603C105.337 21.6781 105.252 21.4336 105.215 21.2267C105.196 21.0197 105.187 20.6906 105.187 20.2391V3.36587C105.187 2.93323 105.196 2.61344 105.215 2.40653C105.252 2.1808 105.337 1.93626 105.469 1.67291C105.732 1.16502 106.466 0.911072 107.67 0.911072C108.855 0.911072 109.569 1.16502 109.814 1.67291C109.964 1.95507 110.049 2.20901 110.068 2.43474C110.106 2.64166 110.124 2.96144 110.124 3.39409V9.62985C111.065 8.48239 112.165 7.90867 113.426 7.90867Z" fill="#446DF6"/>
</svg>
