<svg width="48" height="48" viewBox="0 0 48 48" fill="none" xmlns="http://www.w3.org/2000/svg">
<path d="M11.22 35.24C7.86 35.24 5.37 34.37 3.75 32.63C2.15 30.87 1.35 28.14 1.35 24.44C1.35 20.86 2.19 18.19 3.87 16.43C5.55 14.65 8.05 13.76 11.37 13.76C12.03 13.76 12.73 13.81 13.47 13.91C14.21 14.01 14.91 14.16 15.57 14.36C16.23 14.54 16.76 14.76 17.16 15.02C17.58 15.26 17.79 15.54 17.79 15.86C17.79 16.14 17.68 16.51 17.46 16.97C17.24 17.41 16.98 17.81 16.68 18.17C16.38 18.51 16.1 18.68 15.84 18.68C15.72 18.68 15.48 18.6 15.12 18.44C14.78 18.28 14.29 18.12 13.65 17.96C13.03 17.8 12.24 17.72 11.28 17.72C10.1 17.72 9.12 17.97 8.34 18.47C7.58 18.97 7.01 19.72 6.63 20.72C6.27 21.72 6.09 22.97 6.09 24.47C6.09 25.59 6.19 26.58 6.39 27.44C6.61 28.3 6.93 29.02 7.35 29.6C7.79 30.16 8.33 30.59 8.97 30.89C9.61 31.17 10.36 31.31 11.22 31.31C11.86 31.31 12.44 31.27 12.96 31.19C13.5 31.11 14.14 30.98 14.88 30.8L13.56 32.84V27.29H10.92C10.32 27.29 10.02 26.79 10.02 25.79V24.83C10.02 23.83 10.32 23.33 10.92 23.33H17.01C17.81 23.33 18.21 23.73 18.21 24.53V32.87C18.21 33.39 17.95 33.81 17.43 34.13C16.91 34.43 16.27 34.66 15.51 34.82C14.75 34.98 13.98 35.09 13.2 35.15C12.42 35.21 11.76 35.24 11.22 35.24ZM26.9063 35.06C26.4263 35.06 26.0463 35 25.7663 34.88C25.4863 34.76 25.3063 34.56 25.2263 34.28L20.5163 15.17C20.4963 15.07 20.4763 14.99 20.4563 14.93C20.4563 14.85 20.4563 14.78 20.4563 14.72C20.4563 14.2 21.0763 13.94 22.3163 13.94H23.0963C23.6763 13.94 24.1363 14.02 24.4763 14.18C24.8163 14.32 25.0263 14.55 25.1063 14.87L27.3563 24.53C27.4763 25.05 27.5863 25.65 27.6863 26.33C27.7863 26.99 27.8763 27.67 27.9563 28.37C28.0563 29.05 28.1163 29.68 28.1363 30.26H28.2563C28.3363 29.64 28.4363 28.98 28.5563 28.28C28.6763 27.56 28.7963 26.87 28.9163 26.21C29.0563 25.53 29.1863 24.96 29.3063 24.5L31.7663 14.57C31.8263 14.33 31.9963 14.17 32.2763 14.09C32.5563 13.99 32.9363 13.94 33.4163 13.94H34.5563C35.0363 13.94 35.4163 13.99 35.6963 14.09C35.9763 14.17 36.1463 14.33 36.2063 14.57L38.5763 24.53C38.7163 25.17 38.8463 25.85 38.9663 26.57C39.1063 27.29 39.2263 27.98 39.3263 28.64C39.4263 29.28 39.4863 29.82 39.5063 30.26H39.6263C39.6863 29.76 39.7663 29.18 39.8663 28.52C39.9663 27.84 40.0863 27.15 40.2263 26.45C40.3663 25.73 40.5063 25.07 40.6463 24.47L42.9563 14.87C43.0363 14.55 43.2463 14.32 43.5863 14.18C43.9263 14.02 44.3863 13.94 44.9663 13.94H45.2963C46.5363 13.94 47.1563 14.2 47.1563 14.72C47.1563 14.78 47.1563 14.85 47.1563 14.93C47.1563 14.99 47.1363 15.07 47.0963 15.17L42.2663 34.28C42.1863 34.56 41.9863 34.76 41.6663 34.88C41.3463 35 40.9763 35.06 40.5563 35.06H38.3663C37.9463 35.06 37.5763 35 37.2563 34.88C36.9363 34.76 36.7463 34.56 36.6862 34.28L34.4663 24.89C34.4463 24.75 34.3763 24.32 34.2563 23.6C34.1363 22.88 33.9963 22.05 33.8363 21.11H33.7163C33.5963 21.85 33.4763 22.58 33.3563 23.3C33.2363 24.02 33.1363 24.55 33.0563 24.89L30.7763 34.25C30.6963 34.55 30.4963 34.76 30.1763 34.88C29.8563 35 29.4863 35.06 29.0663 35.06H26.9063Z" fill="#446DF6"/>
</svg>
