<svg width="60" height="61" viewBox="0 0 60 61" fill="none" xmlns="http://www.w3.org/2000/svg">
<rect y="0.432983" width="60" height="60" rx="6" fill="#F7F8FD"/>
<path d="M30.0101 15.433C32.4367 15.433 34.8541 16.0316 37.002 17.164C44.3148 21.0226 47.1272 30.1112 43.2713 37.4266C40.6412 42.4149 35.4631 45.433 29.993 45.433C28.9243 45.433 27.8451 45.318 26.7711 45.0802C26.1661 44.9454 25.7844 44.3455 25.9178 43.7403C26.0512 43.135 26.6496 42.7558 27.2586 42.8866C32.8449 44.1288 38.6122 41.4476 41.2845 36.3787C44.5632 30.1601 42.1722 22.4312 35.9545 19.1514C34.1289 18.1881 32.0735 17.6794 30.0088 17.6794C22.9654 17.6794 17.2457 23.3998 17.2457 30.431C17.243 32.4792 17.7423 34.5181 18.6895 36.3298L18.9774 36.8927C19.3301 37.5534 19.4081 38.374 19.1795 39.1166C18.8638 39.9491 18.601 40.7592 18.3843 41.5652C19.2271 41.3115 20.2561 40.9375 20.9998 40.6667L21.305 40.557C21.8822 40.3416 22.5308 40.6468 22.7422 41.2309C22.9535 41.8136 22.651 42.4585 22.0685 42.6686L21.7673 42.7783C20.6551 43.1813 19.1333 43.735 18.1056 43.9649C18.0184 43.9834 17.9246 43.9953 17.8388 43.9926C17.1492 43.9926 16.7292 43.7138 16.498 43.4786C16.1427 43.1179 15.9736 42.6118 15.9934 41.9748C15.996 41.9022 16.0053 41.8269 16.0224 41.7542C16.2893 40.6178 16.6367 39.484 17.0568 38.3859C17.0871 38.2789 17.0686 38.0846 16.9828 37.9221L16.6935 37.3605C15.5852 35.2383 14.9974 32.8373 15 30.4297C15 22.1603 21.7264 15.433 29.993 15.433H30.0101ZM29.9935 28.6472C30.9776 28.6472 31.7768 29.448 31.7768 30.4311C31.7768 31.4143 30.9776 32.215 29.9935 32.215C29.0094 32.215 28.2102 31.4143 28.2102 30.4311C28.2102 29.448 29.0094 28.6472 29.9935 28.6472ZM36.5983 28.6472C37.5824 28.6472 38.3816 29.448 38.3816 30.4311C38.3816 31.4143 37.5824 32.215 36.5983 32.215C35.6142 32.215 34.815 31.4143 34.815 30.4311C34.815 29.448 35.6142 28.6472 36.5983 28.6472ZM23.3885 28.6478C24.3726 28.6478 25.1718 29.4472 25.1718 30.4317C25.1718 31.4148 24.3726 32.2142 23.3885 32.2142C22.4044 32.2142 21.6052 31.4148 21.6052 30.4317C21.6052 29.4472 22.4044 28.6478 23.3885 28.6478Z" fill="#446DF6"/>
</svg>
