<svg width="60" height="61" viewBox="0 0 60 61" fill="none" xmlns="http://www.w3.org/2000/svg">
<rect y="0.432983" width="60" height="60" rx="6" fill="#F7F8FD"/>
<path d="M35.687 15.4344C36.2551 15.4699 36.6934 15.9568 36.6783 16.5356V18.0879C41.1913 18.5258 43.5 21.0201 43.5 25.5047V37.9101C43.5 42.8988 40.6565 45.433 35.0609 45.433H24.9391C19.3435 45.433 16.5 42.8988 16.5 37.9101V25.5047C16.5 22.5194 17.5174 20.3833 19.6043 19.1361L19.7507 19.0527C20.0533 18.9115 20.4081 18.9244 20.703 19.0956C21.0471 19.2954 21.2503 19.6761 21.2275 20.0785C21.2048 20.4808 20.96 20.8353 20.5957 20.9936C19.213 21.8162 18.5609 23.2491 18.5609 25.5047V25.9027H37.5913C38.1604 25.9027 38.6217 26.372 38.6217 26.9509C38.6217 27.5297 38.1604 27.999 37.5913 27.999H18.5609V37.9101C18.5609 41.718 20.413 43.2969 24.9391 43.3234H35.0609C39.5217 43.3234 41.4261 41.7047 41.4261 37.8968V25.4914C41.4261 22.1744 39.9783 20.569 36.6783 20.1843V21.1926C36.6022 21.7301 36.1395 22.1224 35.6061 22.102C35.0726 22.0815 34.6404 21.6548 34.6043 21.113V16.4427L34.6234 16.2768C34.6659 16.0594 34.7754 15.8597 34.9382 15.7081C35.1417 15.5186 35.4114 15.42 35.687 15.4344ZM36.2805 36.7285L36.4466 36.7392C36.7314 36.7749 36.9985 36.9055 37.2047 37.1132C37.4521 37.3624 37.5913 37.7019 37.5913 38.0561C37.5913 38.7888 37.0073 39.3828 36.287 39.3828C35.5666 39.3828 34.9826 38.7888 34.9826 38.0561C34.9826 37.3233 35.5666 36.7293 36.287 36.7293L36.2805 36.7285ZM30.0261 36.7293L30.1897 36.7396C30.8328 36.8215 31.3304 37.3797 31.3304 38.0561C31.3304 38.7888 30.7465 39.3828 30.0261 39.3828C29.3057 39.3828 28.7217 38.7888 28.7217 38.0561C28.7217 37.3233 29.3057 36.7293 30.0261 36.7293ZM23.772 36.7285L23.9379 36.7392C24.2227 36.7749 24.4898 36.9055 24.696 37.1132C24.9434 37.3624 25.0826 37.7019 25.0826 38.0561C25.0826 38.7888 24.4986 39.3828 23.7783 39.3828C23.0579 39.3828 22.4739 38.7888 22.4739 38.0561C22.4739 37.3233 23.0579 36.7293 23.7783 36.7293L23.772 36.7285ZM36.2805 31.3555L36.4466 31.3657C36.7314 31.4014 36.9985 31.532 37.2047 31.7397C37.4521 31.9889 37.5913 32.3284 37.5913 32.6826C37.5913 33.4153 37.0073 34.0094 36.287 34.0094C35.5666 34.0094 34.9826 33.4153 34.9826 32.6826C34.9826 31.9498 35.5666 31.3558 36.287 31.3558L36.2805 31.3555ZM30.0261 31.3558L30.1897 31.3661C30.8328 31.448 31.3304 32.0062 31.3304 32.6826C31.3304 33.4153 30.7465 34.0094 30.0261 34.0094C29.3057 34.0094 28.7217 33.4153 28.7217 32.6826C28.7217 31.9498 29.3057 31.3558 30.0261 31.3558ZM23.772 31.3555L23.9379 31.3657C24.2227 31.4014 24.4898 31.532 24.696 31.7397C24.9434 31.9889 25.0826 32.3284 25.0826 32.6826C25.0826 33.4153 24.4986 34.0094 23.7783 34.0094C23.0579 34.0094 22.4739 33.4153 22.4739 32.6826C22.4739 31.9498 23.0579 31.3558 23.7783 31.3558L23.772 31.3555ZM24.3587 15.5927C24.8899 15.5927 25.3364 15.9986 25.3957 16.5356V17.9818H31.2913C31.8604 17.9818 32.3217 18.4511 32.3217 19.03C32.3217 19.6088 31.8604 20.0781 31.2913 20.0781H25.3696V21.1263C25.3696 21.4066 25.2592 21.6752 25.0632 21.8722C24.8671 22.0691 24.6016 22.178 24.3261 22.1744L24.1754 22.1594C23.6845 22.0731 23.3151 21.6347 23.3217 21.113V16.5356L23.3508 16.3787C23.4712 15.9215 23.8806 15.5927 24.3587 15.5927Z" fill="#446DF6"/>
</svg>
