<svg width="60" height="61" viewBox="0 0 60 61" fill="none" xmlns="http://www.w3.org/2000/svg">
<rect y="0.432983" width="60" height="60" rx="6" fill="#F7F8FD"/>
<path d="M36.3213 16.183C41.1067 16.183 45 20.1652 45 25.0614V35.8046C45 40.7008 41.1067 44.683 36.3213 44.683C35.7693 44.683 35.3213 44.2246 35.3213 43.6598C35.3213 43.095 35.7693 42.6366 36.3213 42.6366C40.004 42.6366 43 39.5726 43 35.8046V27.2305H38.0747C36.4573 27.2318 35.1387 28.5797 35.1373 30.2359C35.1387 31.892 36.4573 33.2399 38.0747 33.2412H40.1213C40.6733 33.2412 41.1213 33.6996 41.1213 34.2644C41.1213 34.8292 40.6733 35.2876 40.1213 35.2876H38.0747C35.3533 35.2862 33.1387 33.0202 33.1373 30.2359C33.1387 27.4515 35.3533 25.1855 38.0747 25.1841H43V25.0614C43 21.2934 40.004 18.2293 36.3213 18.2293H23.6773C20.7093 18.2293 18.2187 20.232 17.3507 22.9755H30.532C31.084 22.9755 31.532 23.4338 31.532 23.9986C31.532 24.5648 31.084 25.0218 30.532 25.0218H17.004L17 25.0614V35.8046C17 39.5726 19.9947 42.6366 23.6773 42.6366H30.0387C30.5907 42.6366 31.0387 43.095 31.0387 43.6598C31.0387 44.2246 30.5907 44.683 30.0387 44.683H23.6773C18.892 44.683 15 40.7008 15 35.8046V25.0614C15 20.1652 18.892 16.183 23.6773 16.183H36.3213ZM38.7461 29.1205C39.2981 29.1205 39.7461 29.5788 39.7461 30.1436C39.7461 30.7084 39.2981 31.1668 38.7461 31.1668H38.2915C37.7395 31.1668 37.2915 30.7084 37.2915 30.1436C37.2915 29.5788 37.7395 29.1205 38.2915 29.1205H38.7461Z" fill="#446DF6"/>
</svg>
