<svg width="60" height="61" viewBox="0 0 60 61" fill="none" xmlns="http://www.w3.org/2000/svg">
<rect y="0.432983" width="60" height="60" rx="6" fill="#F7F8FD"/>
<path d="M38.2469 45.3121C38.0624 45.3166 37.8794 45.2701 37.7189 45.1771L30.0119 41.1181L23.2259 44.7721C22.1189 45.3721 20.7329 44.9611 20.1329 43.8526C20.1254 43.8391 20.1179 43.8256 20.1104 43.8106C19.8749 43.3471 19.7924 42.8236 19.8734 42.3106L21.1934 34.5196L15.6764 28.9336C14.7749 28.0036 14.7749 26.5246 15.6764 25.5931C16.0274 25.2241 16.4924 24.9856 16.9964 24.9166L24.5609 23.7676L27.9254 16.7581C28.4489 15.6181 29.7974 15.1171 30.9389 15.6406C31.4339 15.8671 31.8299 16.2646 32.0564 16.7581L35.4359 23.7916L43.0259 24.9541C43.6394 25.0456 44.1899 25.3846 44.5499 25.8901C45.2219 26.8561 45.1199 28.1611 44.3069 29.0116L38.8154 34.5316L39.5804 38.7301C39.6869 39.3601 39.2714 39.9616 38.6429 40.0801C38.0249 40.1911 37.4339 39.7801 37.3229 39.1606L36.5444 34.9621C36.4139 34.1926 36.6584 33.4066 37.2044 32.8501L42.7094 27.2911L35.1194 26.1136C34.3499 25.9891 33.6974 25.4791 33.3899 24.7636L30.0119 17.7601L26.5919 24.8746C26.2844 25.5916 25.6319 26.1001 24.8624 26.2246L17.2979 27.3736L22.7624 32.9236C23.3069 33.4711 23.5514 34.2466 23.4224 35.0071L22.1024 42.7981L28.8869 39.1591C29.5589 38.7811 30.3794 38.7811 31.0514 39.1591L38.7479 43.2181C39.2174 43.4746 39.4559 44.0161 39.3284 44.5366C39.2114 45.0571 38.7524 45.4276 38.2199 45.4366L38.2469 45.3121Z" fill="#446DF6"/>
</svg>
