<svg width="36" height="37" viewBox="0 0 36 37" fill="none" xmlns="http://www.w3.org/2000/svg">
<rect x="-12" y="-11.567" width="60" height="60" rx="6" fill="#F7F8FD"/>
<path d="M23.7801 3.43298C28.6001 3.43298 31.4869 6.36014 31.5 11.2476V25.6184C31.5 30.5058 28.6263 33.433 23.7932 33.433H19.5087C18.9592 33.3716 18.5434 32.9008 18.5434 32.3403C18.5434 31.7797 18.9592 31.309 19.5087 31.2476H23.7801C27.4637 31.2476 29.3186 29.3535 29.3186 25.6184V11.2476C29.3186 7.51245 27.4637 5.61841 23.7801 5.61841H12.2068C8.52322 5.61841 6.6553 7.51245 6.6553 11.2476V25.6184C6.6553 29.3535 8.52322 31.2476 12.2068 31.2476C12.7563 31.309 13.1722 31.7797 13.1722 32.3403C13.1722 32.9008 12.7563 33.3716 12.2068 33.433C7.38679 33.433 4.5 30.5058 4.5 25.6184V11.2476C4.5 6.34689 7.38679 3.43298 12.2068 3.43298H23.7801ZM23.3882 23.6979C23.9798 23.6979 24.4594 24.1841 24.4594 24.784C24.4594 25.3838 23.9798 25.8701 23.3882 25.8701H12.5726C11.981 25.8701 11.5015 25.3838 11.5015 24.784C11.5015 24.1841 11.981 23.6979 12.5726 23.6979H23.3882ZM23.3882 17.3403C23.8016 17.2941 24.2046 17.4916 24.4255 17.8488C24.6465 18.206 24.6465 18.6599 24.4255 19.0171C24.2046 19.3743 23.8016 19.5719 23.3882 19.5257H12.5726C12.0231 19.4643 11.6072 18.9935 11.6072 18.433C11.6072 17.8725 12.0231 17.4017 12.5726 17.3403H23.3882ZM16.7003 10.9959C17.2498 11.0573 17.6656 11.5281 17.6656 12.0886C17.6656 12.6491 17.2498 13.1199 16.7003 13.1813H12.5856C12.0362 13.1199 11.6203 12.6491 11.6203 12.0886C11.6203 11.5281 12.0362 11.0573 12.5856 10.9959H16.7003Z" fill="#446DF6"/>
</svg>
