<svg width="60" height="60" viewBox="0 0 60 60" fill="none" xmlns="http://www.w3.org/2000/svg">
<rect width="60" height="60" rx="6" fill="#F7F8FD"/>
<path d="M30.05 15C37.0795 15.0276 42.7775 20.763 42.7499 27.7835V27.9229C42.655 32.94 39.6387 37.1034 37.1256 39.7119C36.4104 40.4578 35.6491 41.1734 34.8641 41.8416C34.3939 42.2428 33.6879 42.1876 33.2862 41.718C32.8844 41.247 32.9411 40.542 33.4113 40.1408C34.1383 39.5212 34.8457 38.8556 35.5108 38.1623C37.7473 35.8419 40.429 32.1731 40.5107 27.8821C40.5331 21.9876 35.8375 17.2586 30.0407 17.2349H29.9999C24.2229 17.2349 19.5115 21.9179 19.4891 27.6914C19.5879 30.5433 20.5521 33.2544 22.2788 35.5288C24.2941 38.2123 27.3511 41.0537 30.2567 42.9453C30.7757 43.282 30.9219 43.974 30.5834 44.4922C30.37 44.8211 30.0104 45 29.6443 45C29.4348 45 29.2241 44.9421 29.0344 44.8185C25.9234 42.794 22.649 39.7501 20.4902 36.8758C18.4868 34.2357 17.3659 31.0852 17.25 27.769C17.2777 20.6788 22.9927 15 29.9999 15H30.05ZM29.9959 23.0751C32.6711 23.0751 34.8483 25.2482 34.8483 27.9212C34.8483 30.5929 32.6711 32.766 29.9959 32.766C27.3208 32.766 25.1436 30.5929 25.1436 27.9212C25.1436 27.3029 25.6454 26.8031 26.2632 26.8031C26.8809 26.8031 27.3827 27.3029 27.3827 27.9212C27.3827 29.359 28.555 30.531 29.9959 30.531C31.4369 30.531 32.6092 29.359 32.6092 27.9212C32.6092 26.4821 31.4369 25.3101 29.9959 25.3101C29.3782 25.3101 28.8764 24.8102 28.8764 24.1932C28.8764 23.575 29.3782 23.0751 29.9959 23.0751Z" fill="#446DF6"/>
</svg>
