<svg width="60" height="61" viewBox="0 0 60 61" fill="none" xmlns="http://www.w3.org/2000/svg">
<rect y="0.134033" width="60" height="60" rx="6" fill="#F7F8FD"/>
<path d="M36.3213 15.884C41.1067 15.884 45 19.8662 45 24.7624V35.5057C45 40.4019 41.1067 44.384 36.3213 44.384C35.7693 44.384 35.3213 43.9257 35.3213 43.3609C35.3213 42.7961 35.7693 42.3377 36.3213 42.3377C40.004 42.3377 43 39.2736 43 35.5057V26.9315H38.0747C36.4573 26.9329 35.1387 28.2807 35.1373 29.9369C35.1387 31.5931 36.4573 32.9409 38.0747 32.9423H40.1213C40.6733 32.9423 41.1213 33.4007 41.1213 33.9655C41.1213 34.5302 40.6733 34.9886 40.1213 34.9886H38.0747C35.3533 34.9873 33.1387 32.7213 33.1373 29.9369C33.1387 27.1525 35.3533 24.8865 38.0747 24.8852H43V24.7624C43 20.9944 40.004 17.9304 36.3213 17.9304H23.6773C20.7093 17.9304 18.2187 19.933 17.3507 22.6765H30.532C31.084 22.6765 31.532 23.1349 31.532 23.6997C31.532 24.2658 31.084 24.7228 30.532 24.7228H17.004L17 24.7624V35.5057C17 39.2736 19.9947 42.3377 23.6773 42.3377H30.0387C30.5907 42.3377 31.0387 42.7961 31.0387 43.3609C31.0387 43.9257 30.5907 44.384 30.0387 44.384H23.6773C18.892 44.384 15 40.4019 15 35.5057V24.7624C15 19.8662 18.892 15.884 23.6773 15.884H36.3213ZM38.7461 28.8215C39.2981 28.8215 39.7461 29.2799 39.7461 29.8447C39.7461 30.4095 39.2981 30.8678 38.7461 30.8678H38.2915C37.7395 30.8678 37.2915 30.4095 37.2915 29.8447C37.2915 29.2799 37.7395 28.8215 38.2915 28.8215H38.7461Z" fill="#446DF6"/>
</svg>
