<svg width="60" height="61" viewBox="0 0 60 61" fill="none" xmlns="http://www.w3.org/2000/svg">
<rect y="0.567017" width="60" height="60" rx="6" fill="#F7F8FD"/>
<path d="M39.6387 33.5581C40.0411 33.5581 40.4434 33.6028 40.8357 33.6905C41.513 33.8411 41.9388 34.508 41.7846 35.1748C41.6287 35.8417 40.9547 36.2637 40.2791 36.1098C38.5356 35.7159 36.7921 37.0877 36.7921 38.8501C36.7921 40.3989 38.0679 41.6599 39.6387 41.6599C41.2079 41.6599 42.4853 40.3989 42.4853 38.8501C42.4853 38.6912 42.4719 38.534 42.4468 38.3834C42.3311 37.7066 42.7955 37.0679 43.4795 36.9537C44.1618 36.8412 44.8122 37.2979 44.9262 37.9747C44.9749 38.2593 45 38.5522 45 38.8501C45 41.7674 42.5943 44.142 39.6387 44.142C36.6815 44.142 34.2775 41.7674 34.2775 38.8501C34.2775 35.9311 36.6815 33.5581 39.6387 33.5581ZM28.0674 37.6087C28.7615 37.6087 29.3248 38.1647 29.3248 38.8497C29.3248 39.5348 28.7615 40.0908 28.0674 40.0908H17.7573C17.0633 40.0908 16.5 39.5348 16.5 38.8497C16.5 38.1647 17.0633 37.6087 17.7573 37.6087H28.0674ZM21.8618 17.067C24.819 17.067 27.223 19.44 27.223 22.359C27.223 25.2763 24.819 27.6509 21.8618 27.6509C18.9045 27.6509 16.5005 25.2763 16.5005 22.359C16.5005 22.0611 16.5256 21.7682 16.5743 21.4836C16.6883 20.8068 17.3287 20.355 18.021 20.4626C18.705 20.5768 19.1694 21.2155 19.0537 21.8923C19.0286 22.0429 19.0152 22.2001 19.0152 22.359C19.0152 23.9078 20.2909 25.1688 21.8618 25.1688C23.4326 25.1688 24.7084 23.9078 24.7084 22.359C24.7084 20.8084 23.4326 19.5492 21.8618 19.5492C21.6472 19.5492 21.4326 19.5723 21.2281 19.6187C20.5491 19.7792 19.8752 19.3589 19.7176 18.692C19.56 18.0251 19.9808 17.3566 20.6581 17.2027C21.0504 17.1117 21.4544 17.067 21.8618 17.067ZM43.7423 21.1174C44.4364 21.1174 44.9997 21.6734 44.9997 22.3585C44.9997 23.0435 44.4364 23.5995 43.7423 23.5995H33.4339C32.7399 23.5995 32.1766 23.0435 32.1766 22.3585C32.1766 21.6734 32.7399 21.1174 33.4339 21.1174H43.7423Z" fill="#446DF6"/>
</svg>
