<svg width="60" height="61" viewBox="0 0 60 61" fill="none" xmlns="http://www.w3.org/2000/svg">
<rect y="0.432983" width="60" height="60" rx="6" fill="#F7F8FD"/>
<path d="M38.3296 23.2299C42.0075 23.2299 45 26.3407 45 30.1642V37.7643C45 41.5784 42.015 44.683 38.3446 44.683H26.9237C26.2862 44.683 25.7702 44.1435 25.7702 43.4823C25.7702 42.818 26.2862 42.2801 26.9237 42.2801H38.3446C40.74 42.2801 42.69 40.2545 42.69 37.7643V30.1642C42.69 27.6646 40.734 25.6312 38.3296 25.6312H36.9331C36.2956 25.6312 35.7796 25.0948 35.7796 24.4305C35.7796 23.7678 36.2956 23.2299 36.9331 23.2299H38.3296ZM23.0669 23.2306C23.7044 23.2306 24.2219 23.7686 24.2219 24.4313C24.2219 25.094 23.7044 25.632 23.0669 25.632H21.6554C19.26 25.632 17.31 27.6591 17.31 30.1478V37.7479C17.31 40.2475 19.266 42.2809 21.6704 42.2809C22.3079 42.2809 22.8254 42.8188 22.8254 43.4815C22.8254 44.1442 22.3079 44.6822 21.6704 44.6822C17.9925 44.6822 15 41.5714 15 37.7479L15 30.1478C15 26.3337 17.985 23.2306 21.6554 23.2306H23.0669ZM29.9997 16.183C30.6372 16.183 31.1562 16.6979 31.1562 17.3323V35.2648C31.1562 35.7305 30.8742 36.15 30.4407 36.3276C30.0087 36.5052 29.5107 36.4052 29.1807 36.0768L24.8188 31.7154C24.5953 31.4915 24.4828 31.1974 24.4828 30.9034C24.4828 30.6093 24.5953 30.3138 24.8218 30.0899C25.2747 29.6421 26.0052 29.6436 26.4552 30.0929L28.8447 32.4811V17.3323C28.8447 16.6979 29.3622 16.183 29.9997 16.183ZM33.5418 30.0955C33.9903 29.6448 34.7208 29.6403 35.1752 30.0866C35.6297 30.5314 35.6327 31.2583 35.1842 31.7121L34.0923 32.8121C33.6453 33.2629 32.9133 33.2674 32.4603 32.8196C32.2308 32.5957 32.1168 32.3002 32.1168 32.0031C32.1168 31.7121 32.2278 31.4195 32.4513 31.1941L33.5418 30.0955Z" fill="#446DF6"/>
</svg>
